<?xml version="1.0" encoding="utf-8"?>
<!-- Generator: Adobe Illustrator 21.0.0, SVG Export Plug-In . SVG Version: 6.00 Build 0)  -->
<svg version="1.1" xmlns="http://www.w3.org/2000/svg" xmlns:xlink="http://www.w3.org/1999/xlink" x="0px" y="0px"
	 viewBox="0 0 47.7 32.4" enable-background="new 0 0 47.7 32.4" xml:space="preserve">
<g id="Ebene_1">
	<g>
		<g>
			<path fill="none" stroke="#575756" stroke-width="0.75" stroke-miterlimit="10" d="M46.2,8c-3.7,0-3.7-3.6-7.4-3.6
				c-3.7,0-3.7,3.6-7.4,3.6c-3.7,0-3.7-3.6-7.4-3.6c-3.7,0-3.7,3.6-7.4,3.6c-3.7,0-3.7-3.6-7.4-3.6C5.5,4.4,5.5,8,1.8,8"/>
		</g>
		<path fill="none" stroke="#575756" stroke-width="0.75" stroke-linecap="round" stroke-miterlimit="10" d="M47.3,0.4
			c0,0-3.4,18.6-4.1,22.6s-2.6,5.9-5.9,5.9H10.4c-3.2,0-5.2-2.4-5.9-5.9S0.4,0.4,0.4,0.4"/>
		<g>
			<line fill="none" stroke="#E42320" stroke-width="2" stroke-miterlimit="10" x1="8.8" y1="31.7" x2="39.4" y2="1.1"/>
			<line fill="none" stroke="#E42320" stroke-width="2" stroke-miterlimit="10" x1="39.4" y1="31.7" x2="8.8" y2="1.1"/>
		</g>
	</g>
</g>
<g id="Ebene_2">
</g>
</svg>
