<?xml version="1.0" encoding="utf-8"?>
<!-- Generator: Adobe Illustrator 21.0.0, SVG Export Plug-In . SVG Version: 6.00 Build 0)  -->
<svg version="1.1" xmlns="http://www.w3.org/2000/svg" xmlns:xlink="http://www.w3.org/1999/xlink" x="0px" y="0px"
	 viewBox="0 0 43.1 39.7" enable-background="new 0 0 43.1 39.7" xml:space="preserve">
<g id="Ebene_1">
	<g>
		<path fill="none" stroke="#575756" stroke-width="0.75" stroke-linecap="round" stroke-miterlimit="10" d="M42.7,13.6
			c0,0-3,16.8-3.7,20.4c-0.7,3.6-2.4,5.3-5.3,5.3H9.4c-2.9,0-4.7-2.2-5.3-5.3c-0.6-3.1-3.7-20.4-3.7-20.4"/>
		<path fill="none" stroke="#575756" stroke-width="0.75" stroke-miterlimit="10" d="M10.4,17.3c0,0-1-0.7-2.2-0.7
			c-3.3,0-3.3,3.2-6.7,3.2"/>
		<path fill="none" stroke="#575756" stroke-width="0.75" stroke-miterlimit="10" d="M41.6,19.8c-3.3,0-3.3-3.2-6.7-3.2
			c-1.7,0-2.5,0.8-3.3,1.6"/>
		<g>
			<path fill="none" stroke="#575756" stroke-width="0.75" stroke-linecap="round" stroke-miterlimit="10" d="M17.4,0.4
				c0,0,0.3,5.2-0.3,6.2c-0.7,1-3.5,3.9-4.3,4.9c-1.1,1.3-2.4,6.8-3.9,9.7c-0.5,1,3,1.4,4.2-0.8s1.2-3.2,2.4-3.1
				c1.2,0.1,0.9,2.1,0.9,2.1l0,12.8c0,1,0.8,1.7,1.7,1.7l0.5,0c1,0,1.7-0.8,1.7-1.7l0-7.8"/>
			<path fill="none" stroke="#575756" stroke-width="0.75" stroke-linecap="round" stroke-miterlimit="10" d="M28.3,19.7l0,7
				c0,1,0.8,1.7,1.7,1.7h0c1,0,1.7-0.8,1.7-1.7l0-12.8c0-2.6-1.2-5.2-1.9-6.3c-1.6-2.5-1.9-6.1-2-7.3"/>
			<path fill="none" stroke="#575756" stroke-width="0.75" stroke-linecap="round" stroke-miterlimit="10" d="M28.3,26l0,5.5
				c0,1-0.8,1.7-1.7,1.7l-0.5,0c-1,0-1.7-0.8-1.7-1.7l0-10.2"/>
			<path fill="none" stroke="#575756" stroke-width="0.75" stroke-linecap="round" stroke-miterlimit="10" d="M20.4,21.9l0,11.5
				c0,1,0.8,1.7,1.7,1.7l0.5,0c1,0,1.7-0.8,1.7-1.7l0-2.3"/>
		</g>
	</g>
</g>
<g id="Ebene_2">
</g>
</svg>
